<svg width="72" height="72" viewBox="0 0 72 72" fill="none" xmlns="http://www.w3.org/2000/svg">
<path d="M22.2719 57.7373H16.5398C7.76281 57.1104 3.82227 50.3634 3.82227 44.3628C3.82227 38.3622 7.76284 31.5854 16.3906 30.9884C17.6146 30.8689 18.6893 31.8243 18.7788 33.0781C18.8684 34.3021 17.9431 35.3769 16.6892 35.4664C10.8976 35.8844 8.30033 40.243 8.30033 44.3927C8.30033 48.5423 10.8976 52.901 16.6892 53.319H22.2719C23.4959 53.319 24.5109 54.334 24.5109 55.558C24.5109 56.782 23.4959 57.7373 22.2719 57.7373Z" fill="#292D32"/>
<path d="M49.7661 57.7371C49.7064 57.7371 49.6766 57.7371 49.6169 57.7371C48.3929 57.7371 47.2585 56.722 47.2585 55.498C47.2585 54.2143 48.2138 53.259 49.4676 53.259C53.1396 53.259 56.4236 51.9753 58.991 49.6766C63.6482 45.6165 63.9467 39.7651 62.6928 35.6453C61.439 31.5553 57.9461 26.8683 51.8559 26.122C50.8707 26.0025 50.0944 25.2562 49.9153 24.271C48.7212 17.1061 44.8702 12.1504 39.0188 10.3592C32.9884 8.4784 25.9428 10.3293 21.5543 14.9268C17.2852 19.375 16.3 25.6145 18.7779 32.4808C19.1958 33.6451 18.5989 34.9288 17.4346 35.3468C16.2703 35.7647 14.9865 35.1676 14.5686 34.0033C11.5534 25.5846 12.9267 17.5241 18.3302 11.8519C23.8531 6.06024 32.7197 3.76148 40.3324 6.09008C47.3182 8.23955 52.2439 14.0013 54.0352 22.0021C60.1253 23.3754 65.0214 28.0028 66.9619 34.3915C69.0815 41.3474 67.1709 48.5123 61.9465 53.0501C58.6327 56.0354 54.3039 57.7371 49.7661 57.7371Z" fill="#292D32"/>
<path d="M35.8241 66.5142C29.8235 66.5142 24.2111 63.3198 21.1361 58.1551C20.8077 57.6476 20.4793 57.0505 20.2107 56.3938C19.1956 54.2741 18.6582 51.856 18.6582 49.3483C18.6582 39.8846 26.3605 32.1824 35.8241 32.1824C45.2877 32.1824 52.99 39.8846 52.99 49.3483C52.99 51.8858 52.4527 54.2741 51.378 56.4833C51.1391 57.0505 50.8108 57.6476 50.4525 58.2148C47.4373 63.3198 41.8247 66.5142 35.8241 66.5142ZM35.8241 36.6604C28.8383 36.6604 23.1363 42.3625 23.1363 49.3483C23.1363 51.1992 23.5244 52.9307 24.2707 54.513C24.5096 55.0205 24.7185 55.4384 24.9573 55.8265C27.2262 59.6777 31.3759 62.0361 35.7942 62.0361C40.2126 62.0361 44.3622 59.6777 46.6013 55.8863C46.8699 55.4384 47.1089 55.0205 47.288 54.6025C48.0941 52.9606 48.4821 51.229 48.4821 49.3781C48.5119 42.3625 42.8099 36.6604 35.8241 36.6604Z" fill="#292D32"/>
<path d="M34.1227 54.5428C33.5555 54.5428 32.9883 54.3338 32.5405 53.886L29.5849 50.9304C28.7191 50.0647 28.7191 48.6317 29.5849 47.7659C30.4506 46.9002 31.8836 46.9002 32.7494 47.7659L34.1825 49.1989L38.959 44.7806C39.8845 43.9447 41.2876 44.0043 42.1235 44.9C42.9594 45.7956 42.8997 47.2286 42.0041 48.0645L35.6453 53.9457C35.1975 54.3338 34.6601 54.5428 34.1227 54.5428Z" fill="#292D32"/>
</svg>
