<svg width="14" height="13" viewBox="0 0 14 13" fill="none" xmlns="http://www.w3.org/2000/svg">
<path fill-rule="evenodd" clip-rule="evenodd" d="M2.77148 5.27353C2.77148 2.92255 4.73608 1.02234 7.11247 1.02234C9.49555 1.02234 11.4602 2.92255 11.4602 5.27353C11.4602 6.45822 11.0293 7.55807 10.3201 8.49029C9.53781 9.51859 8.57355 10.4145 7.48817 11.1178C7.23977 11.2803 7.01558 11.2926 6.74295 11.1178C5.65139 10.4145 4.68712 9.51859 3.91149 8.49029C3.20182 7.55807 2.77148 6.45822 2.77148 5.27353ZM5.68235 5.4059C5.68235 6.19348 6.32502 6.81291 7.11302 6.81291C7.90154 6.81291 8.5504 6.19348 8.5504 5.4059C8.5504 4.62445 7.90154 3.97487 7.11302 3.97487C6.32502 3.97487 5.68235 4.62445 5.68235 5.4059Z" fill="black"/>
</svg>
