<svg width="13" height="13" viewBox="0 0 13 13" fill="none" xmlns="http://www.w3.org/2000/svg">
<path fill-rule="evenodd" clip-rule="evenodd" d="M10.571 8.08288C9.31365 8.58376 7.87747 8.84953 6.4055 8.84953C4.93354 8.84953 3.49736 8.58376 2.24517 8.08288C2.05606 8.00622 1.87206 7.92956 1.69318 7.84267C1.60629 7.80178 1.51941 7.76089 1.43252 7.70978L1.54496 10.899H11.2712L11.3785 7.70978C11.2916 7.76089 11.2047 7.80178 11.1178 7.84267C10.9389 7.92956 10.7549 8.00622 10.571 8.08288Z" fill="black"/>
<path fill-rule="evenodd" clip-rule="evenodd" d="M5.08678 2.81341L5.38117 2.13365H7.43221L7.7266 2.81341H5.08678ZM8.56224 2.81341L7.93666 1.367H4.87672L4.25113 2.81341H1.42578V6.53778L1.55202 6.61189C2.77968 7.32999 4.32984 7.74806 5.95718 7.814V8.47689H6.8562V7.814C8.48456 7.74755 10.0347 7.32948 11.2608 6.61189L11.3876 6.53778V2.81341H8.56224Z" fill="black"/>
</svg>
