<svg width="13" height="13" viewBox="0 0 13 13" fill="none" xmlns="http://www.w3.org/2000/svg">
<g clip-path="url(#clip0_444_3194)">
<path d="M2.04476 8.43324V9.56596C2.32907 9.5179 2.58495 9.36479 2.7617 9.13697C2.93844 8.90915 3.02315 8.62324 2.99904 8.33591C2.97493 8.04857 2.84375 7.78078 2.63151 7.58561C2.41926 7.39043 2.14144 7.2821 1.8531 7.2821C1.56475 7.2821 1.28693 7.39043 1.07469 7.58561C0.862445 7.78078 0.731268 8.04857 0.707155 8.33591C0.683042 8.62324 0.767752 8.90915 0.944498 9.13697C1.12124 9.36479 1.37713 9.5179 1.66144 9.56596V8.43324H2.04476Z" fill="black"/>
<path d="M10.8612 8.43324V9.56596C11.1455 9.5179 11.4014 9.36479 11.5781 9.13697C11.7549 8.90915 11.8396 8.62324 11.8154 8.33591C11.7913 8.04857 11.6602 7.78078 11.4479 7.58561C11.2357 7.39043 10.9578 7.2821 10.6695 7.2821C10.3812 7.2821 10.1033 7.39043 9.89109 7.58561C9.67885 7.78078 9.54767 8.04857 9.52356 8.33591C9.49945 8.62324 9.58416 8.90915 9.7609 9.13697C9.93765 9.36479 10.1935 9.5179 10.4778 9.56596V8.43324H10.8612Z" fill="black"/>
<path d="M11.8195 10.3498H10.8612V9.56592C10.7345 9.58892 10.6046 9.58892 10.4779 9.56592V10.3498H9.13624V2.10836H9.71123V1.72504H2.8114V2.10836H3.38639V10.3498H2.04476V9.56592C1.91802 9.58892 1.78817 9.58892 1.66143 9.56592V10.3498H0.703125V10.7331H11.8195V10.3498ZM6.45298 2.87501H7.21963V3.25833H6.45298V2.87501ZM6.45298 3.83332H7.21963V4.21664H6.45298V3.83332ZM6.45298 4.79163H7.21963V5.17495H6.45298V4.79163ZM6.45298 5.74993H7.21963V6.13326H6.45298V5.74993ZM6.45298 6.70824H7.21963V7.09157H6.45298V6.70824ZM4.15304 2.87501H4.91968V3.25833H4.15304V2.87501ZM4.15304 3.83332H4.91968V4.21664H4.15304V3.83332ZM4.15304 4.79163H4.91968V5.17495H4.15304V4.79163ZM4.15304 5.74993H4.91968V6.13326H4.15304V5.74993ZM4.15304 6.70824H4.91968V7.09157H4.15304V6.70824ZM6.06966 10.3498H4.91968V8.62486C4.91968 8.57403 4.93988 8.52528 4.97582 8.48934C5.01176 8.45339 5.06051 8.4332 5.11135 8.4332H6.06966V10.3498ZM6.06966 7.09157H5.30301V6.70824H6.06966V7.09157ZM6.06966 6.13326H5.30301V5.74993H6.06966V6.13326ZM6.06966 5.17495H5.30301V4.79163H6.06966V5.17495ZM6.06966 4.21664H5.30301V3.83332H6.06966V4.21664ZM6.06966 3.25833H5.30301V2.87501H6.06966V3.25833ZM7.60295 10.3498H6.45298V8.4332H7.41129C7.46212 8.4332 7.51087 8.45339 7.54681 8.48934C7.58276 8.52528 7.60295 8.57403 7.60295 8.62486V10.3498ZM8.3696 7.09157H7.60295V6.70824H8.3696V7.09157ZM8.3696 6.13326H7.60295V5.74993H8.3696V6.13326ZM8.3696 5.17495H7.60295V4.79163H8.3696V5.17495ZM8.3696 4.21664H7.60295V3.83332H8.3696V4.21664ZM8.3696 3.25833H7.60295V2.87501H8.3696V3.25833Z" fill="black"/>
</g>
<defs>
<clipPath id="clip0_444_3194">
<rect width="12.2664" height="12.2664" fill="white" transform="translate(0.128906)"/>
</clipPath>
</defs>
</svg>
