<svg width="31" height="31" viewBox="0 0 31 31" fill="none" xmlns="http://www.w3.org/2000/svg">
<path d="M30.213 8.54176C30.0174 8.35038 29.7457 8.24194 29.4619 8.24194H23.2848V7.27419C23.2848 3.53884 20.0254 0.5 16.019 0.5H14.981C10.9746 0.5 7.71522 3.53884 7.71522 7.27419V8.24194H1.53808C1.25426 8.24194 0.982607 8.35038 0.786974 8.54176C0.590834 8.73337 0.487949 8.99137 0.501126 9.25575L1.44483 27.7348C1.5244 29.2856 2.89028 30.5 4.55519 30.5H26.4448C28.1097 30.5 29.4756 29.2856 29.5552 27.7348L30.4989 9.25575C30.5121 8.99137 30.4092 8.73337 30.213 8.54176ZM9.79116 7.27419C9.79116 4.60605 12.1195 2.43548 14.981 2.43548H16.019C18.8805 2.43548 21.2088 4.60605 21.2088 7.27419V8.24194H9.79116V7.27419ZM27.4813 27.6431C27.4549 28.1596 26.9998 28.5645 26.4448 28.5645H4.55519C4.00022 28.5645 3.5451 28.1596 3.51874 27.6431L2.62674 10.1774H7.71522V13.5645C7.71522 14.0989 8.17998 14.5323 8.75319 14.5323C9.32641 14.5323 9.79116 14.0989 9.79116 13.5645V10.1774H21.2088V13.5645C21.2088 14.0989 21.6736 14.5323 22.2468 14.5323C22.82 14.5323 23.2848 14.0989 23.2848 13.5645V10.1774H28.3733L27.4813 27.6431Z" fill="#6D6D6D"/>
<path d="M9.32856 17.1161C9.2718 17.082 9.21453 17.0485 9.15219 17.0239C9.08478 16.9998 9.02244 16.9804 8.95504 16.971C8.618 16.9081 8.25968 17.0097 8.02096 17.237C7.82381 17.4161 7.71484 17.6628 7.71484 17.9194C7.71484 18.0498 7.74069 18.1707 7.79239 18.2917C7.84459 18.408 7.92213 18.5143 8.02096 18.6017C8.11422 18.6934 8.22876 18.7661 8.35293 18.8143C8.48268 18.863 8.61242 18.8871 8.75281 18.8871C9.02802 18.8871 9.29258 18.7855 9.48466 18.6017C9.58299 18.5143 9.66104 18.408 9.71273 18.2917C9.76494 18.1707 9.79078 18.0498 9.79078 17.9194C9.79078 17.6628 9.68182 17.4161 9.48466 17.237C9.43753 17.1888 9.38583 17.1501 9.32856 17.1161Z" fill="#6D6D6D"/>
<path d="M23.2069 17.5465C23.181 17.4884 23.1445 17.4355 23.1086 17.3821C23.0721 17.3292 23.0305 17.2805 22.9788 17.237C22.7401 17.0097 22.3818 16.9081 22.0442 16.971C21.9768 16.9804 21.9094 16.9998 21.8471 17.0239C21.7847 17.0485 21.728 17.082 21.6707 17.1161C21.6139 17.1501 21.5617 17.1888 21.5151 17.237C21.4634 17.2805 21.4218 17.3292 21.3854 17.3821C21.3438 17.4355 21.3129 17.4884 21.2865 17.5465C21.2607 17.6094 21.2399 17.6675 21.2298 17.7303C21.2141 17.7937 21.209 17.8565 21.209 17.9194C21.209 18.0498 21.2348 18.1707 21.2865 18.2917C21.3387 18.408 21.4163 18.5143 21.5151 18.6017C21.5617 18.6499 21.6139 18.6886 21.6707 18.7227C21.728 18.7614 21.7847 18.7902 21.8471 18.8143C21.9094 18.8384 21.9768 18.8578 22.0442 18.8677C22.1121 18.8824 22.1795 18.8871 22.247 18.8871C22.3144 18.8871 22.3818 18.8824 22.4492 18.8677C22.5166 18.8578 22.584 18.8384 22.6463 18.8143C22.7036 18.7902 22.7659 18.7614 22.8227 18.7227C22.88 18.6886 22.9317 18.6499 22.9788 18.6017C23.0771 18.5143 23.1552 18.408 23.2069 18.2917C23.2591 18.1707 23.2849 18.0498 23.2849 17.9194C23.2849 17.8565 23.2743 17.7937 23.2641 17.7303C23.2484 17.6675 23.2327 17.6094 23.2069 17.5465Z" fill="#6D6D6D"/>
<path d="M19.1329 21.3062H15.5C14.9268 21.3062 14.462 21.7395 14.462 22.274C14.462 22.8084 14.9268 23.2417 15.5 23.2417H17.878C17.4771 24.0956 16.5618 24.6933 15.5 24.6933C14.0692 24.6933 12.905 23.6079 12.905 22.274C12.905 21.7395 12.4403 21.3062 11.8671 21.3062C11.2939 21.3062 10.8291 21.7395 10.8291 22.274C10.8291 24.6754 12.9243 26.6288 15.5 26.6288C18.0756 26.6288 20.1708 24.6754 20.1708 22.274C20.1708 21.7395 19.7061 21.3062 19.1329 21.3062Z" fill="#6D6D6D"/>
</svg>
