<svg width="27" height="27" viewBox="0 0 27 27" fill="none" xmlns="http://www.w3.org/2000/svg">
<path fill-rule="evenodd" clip-rule="evenodd" d="M18.4104 15.7983L15.185 17.6547C14.6155 17.4575 12.9781 16.7971 11.481 15.3C10.0758 13.8948 9.48878 12.3429 9.31683 11.8008L11.1776 8.56879L7.1286 3.00513L6.70147 3.25703C4.96885 4.27338 3.69621 5.54382 2.70067 7.25673L2.63715 7.43087C2.07421 10.435 3.79259 14.8641 6.91285 18.452C10.2981 22.3443 14.691 24.537 19.0543 24.537C19.2515 24.537 19.4486 24.5337 19.6458 24.5238L19.7761 24.5183L19.8889 24.4548C21.6434 23.4713 22.9183 22.1965 23.9007 20.442L24.1361 20.0203L18.4104 15.7983Z" fill="#0EBBB6"/>
</svg>
