<svg width="22" height="22" viewBox="0 0 22 22" fill="none" xmlns="http://www.w3.org/2000/svg">
<path fill-rule="evenodd" clip-rule="evenodd" d="M6.03522 2.61386L6.29807 5.29494H20.2379L18.9499 15.0554H5.96513L4.84363 3.92811H2.61816V2.61386H6.03522ZM7.57657 16.6652C6.96062 16.6652 6.46033 17.1655 6.46033 17.7815C6.46033 18.3974 6.96062 18.8986 7.57657 18.8986C8.19164 18.8986 8.69193 18.3974 8.69193 17.7815C8.69193 17.1655 8.19164 16.6652 7.57657 16.6652ZM17.0981 16.6652C16.4821 16.6652 15.9818 17.1655 15.9818 17.7815C15.9818 18.3974 16.4821 18.8986 17.0981 18.8986C17.714 18.8986 18.2143 18.3974 18.2143 17.7815C18.2143 17.1655 17.714 16.6652 17.0981 16.6652ZM11.517 10.7862L14.9678 7.25155L15.8086 8.11276L11.517 12.5086L8.79926 9.7248L9.64004 8.8636L11.517 10.7862Z" fill="white"/>
</svg>
