<svg width="22" height="22" viewBox="0 0 22 22" fill="none" xmlns="http://www.w3.org/2000/svg">
<path d="M11.6972 16.4524C11.6973 15.5139 11.9837 14.5957 12.5213 13.8102C13.059 13.0248 13.8245 12.4061 14.7244 12.0298C15.6242 11.6536 16.6193 11.5362 17.5879 11.6918C18.5566 11.8475 19.4567 12.2696 20.1782 12.9064C20.2021 11.2566 20.1877 9.60676 20.1352 7.95692C20.1066 6.82341 19.4368 5.68545 18.3146 5.12314C17.738 4.83189 17.1406 4.5516 16.5364 4.28602C14.1488 5.02389 11.3526 5.99723 8.53242 7.20227C8.26127 7.3168 8.02898 7.50141 7.86172 7.7353C7.69447 7.96919 7.5989 8.24307 7.58578 8.52607C7.54173 9.82659 7.52812 11.1689 7.54603 12.4961C7.54747 12.535 7.53581 12.5734 7.51277 12.6055C7.48972 12.6376 7.4565 12.6618 7.41799 12.6746C7.37948 12.6873 7.3377 12.6879 7.29879 12.6763C7.25988 12.6647 7.2259 12.6415 7.20183 12.6101C6.90336 12.245 6.61181 11.884 6.32719 11.5272C6.30618 11.4993 6.27495 11.48 6.23972 11.4731C6.20448 11.4662 6.16782 11.4722 6.137 11.4899C5.91566 11.6158 5.69825 11.7401 5.48478 11.8626C5.36516 11.931 5.21795 11.8397 5.21723 11.699C5.21007 10.3769 5.24445 9.05141 5.31859 7.76663C5.34975 7.22486 5.70541 6.71457 6.23156 6.46611C8.93643 5.18954 11.8222 4.14672 14.2846 3.37497C13.7115 3.16072 13.1417 2.96427 12.5854 2.77809C11.8354 2.53202 11.021 2.53202 10.271 2.77809C8.41494 3.39002 6.38808 4.18882 4.54137 5.12314C3.4196 5.68545 2.75054 6.82341 2.72082 7.95692C2.64775 10.2226 2.64775 12.4882 2.72082 14.7539C2.74947 15.8874 2.65551 16.2952 3.77729 16.8575C5.62399 17.7918 8.41494 19.3208 10.272 19.9323C11.022 20.1784 11.8365 20.1784 12.5865 19.9323C12.7486 19.879 12.9123 19.8239 13.0775 19.767C12.1883 18.873 11.6939 17.6858 11.6972 16.4524Z" fill="white"/>
<path d="M16.684 13.1075C15.9909 13.1076 15.3133 13.3132 14.737 13.6984C14.1607 14.0835 13.7115 14.6309 13.4463 15.2713C13.1811 15.9118 13.1118 16.6164 13.2471 17.2963C13.3824 17.9761 13.7162 18.6005 14.2064 19.0906C14.6966 19.5807 15.3211 19.9144 16.001 20.0496C16.6808 20.1848 17.3855 20.1153 18.0258 19.85C18.6662 19.5847 19.2135 19.1354 19.5986 18.559C19.9836 17.9827 20.1891 17.305 20.189 16.6119C20.189 16.1516 20.0983 15.6959 19.9221 15.2707C19.746 14.8455 19.4878 14.4592 19.1623 14.1338C18.8368 13.8084 18.4505 13.5503 18.0252 13.3742C17.6 13.1981 17.1443 13.1075 16.684 13.1075ZM18.683 16.0319L16.5763 18.2439C16.519 18.3042 16.4501 18.3523 16.3737 18.3853C16.2973 18.4182 16.215 18.4354 16.1318 18.4357H16.1289C16.0462 18.4357 15.9643 18.4191 15.8881 18.3869C15.812 18.3547 15.743 18.3075 15.6854 18.2482L14.5675 17.0967C14.4534 16.979 14.3906 16.8209 14.3931 16.657C14.3955 16.4931 14.463 16.3369 14.5806 16.2227C14.6983 16.1085 14.8564 16.0458 15.0203 16.0482C15.1842 16.0507 15.3404 16.1182 15.4546 16.2358L16.1253 16.9261L17.7884 15.1795C17.9028 15.0675 18.0562 15.0042 18.2163 15.003C18.3764 15.0017 18.5307 15.0627 18.6467 15.173C18.7628 15.2833 18.8315 15.4344 18.8384 15.5943C18.8452 15.7543 18.7898 15.9107 18.6837 16.0306L18.683 16.0319Z" fill="white"/>
</svg>
