<svg width="28" height="27" viewBox="0 0 28 27" fill="none" xmlns="http://www.w3.org/2000/svg">
<path fill-rule="evenodd" clip-rule="evenodd" d="M17.5585 15.0097H19.3086V13.3669H17.5585V15.0097ZM13.4678 15.0097H15.2191V13.3669H13.4678V15.0097ZM9.37833 15.0097H11.1296V13.3669H9.37833V15.0097ZM21.9021 6.23599C19.8923 4.22628 17.2189 3.11902 14.3714 3.11902C11.5249 3.11902 8.84934 4.22628 6.83963 6.23708C4.82445 8.25117 3.71609 10.929 3.71828 13.7754C3.71828 16.6624 5.23406 19.4136 5.78385 20.316L3.21777 24.4077L4.2177 24.399C4.28122 24.399 10.5809 24.3442 14.1403 24.4209C14.2203 24.422 14.2991 24.423 14.378 24.423C17.2211 24.423 19.8847 23.3202 21.9021 21.3017C26.0551 17.1476 26.0551 10.3901 21.9021 6.23599Z" fill="#0EBBB6"/>
</svg>
