<svg width="25" height="25" viewBox="0 0 25 25" fill="none" xmlns="http://www.w3.org/2000/svg">
<g clip-path="url(#clip0_444_2613)">
<path d="M18.4683 14.6986H14.6191C14.2221 14.6986 13.9004 15.0205 13.9004 15.4173V19.2992C13.9004 19.696 14.2221 20.0179 14.6191 20.0179H18.4683C18.8653 20.0179 19.187 19.696 19.187 19.2992V15.4173C19.187 15.0205 18.8653 14.6986 18.4683 14.6986ZM17.7495 18.5805H15.3379V16.136H17.7495V18.5805Z" fill="black"/>
<path d="M24.0593 7.26499L23.1206 4.02912C22.7677 2.81259 21.4852 1.85983 20.2008 1.85983H5.18895C3.90457 1.85983 2.62209 2.81259 2.26911 4.02912L1.33041 7.26499C1.31338 7.32371 1.30469 7.38447 1.30469 7.44558V9.55753C1.30469 10.7287 2.04682 11.7314 3.09188 12.1359V20.4704C3.09188 21.8033 4.1929 22.8879 5.54646 22.8879H19.8435C21.1968 22.8879 22.298 21.8033 22.298 20.4704V12.1359C23.3429 11.7314 24.0851 10.7287 24.0851 9.55753V7.44558C24.0851 7.38447 24.0764 7.32371 24.0593 7.26499ZM3.55262 4.3903C3.7405 3.74258 4.50505 3.17445 5.18895 3.17445H20.2008C20.8845 3.17445 21.6492 3.74258 21.8371 4.3903L22.5329 6.78827H2.8569L3.55262 4.3903ZM6.92852 8.10289H9.88296V9.55753C9.88296 10.3598 9.22026 11.0125 8.40565 11.0125C7.59122 11.0125 6.92852 10.3598 6.92852 9.55753V8.10289ZM11.2177 8.10289H14.172V9.55753C14.172 10.3598 13.5093 11.0125 12.6949 11.0125C11.8804 11.0125 11.2177 10.3598 11.2177 9.55753V8.10289ZM15.5068 8.10289H18.4611V9.55753C18.4611 10.3598 17.7985 11.0125 16.9839 11.0125C16.1695 11.0125 15.5068 10.3598 15.5068 9.55753V8.10289ZM2.63948 9.55753V8.10289H5.59374V9.55753C5.59374 10.3598 4.93121 11.0125 4.11661 11.0125C3.30218 11.0125 2.63948 10.3598 2.63948 9.55753ZM8.00087 21.5733V17.6075H10.2405V21.5733H8.00087ZM19.8435 21.5733H11.5753V16.9502C11.5753 16.5873 11.2763 16.2929 10.9079 16.2929H7.33348C6.96502 16.2929 6.66608 16.5873 6.66608 16.9502V21.5733H5.54646C4.92895 21.5733 4.42667 21.0786 4.42667 20.4704V12.31C5.15941 12.2304 5.80803 11.8725 6.26113 11.3461C6.77749 11.9456 7.54691 12.3271 8.40565 12.3271C9.2644 12.3271 10.0342 11.9456 10.5504 11.3461C11.0665 11.9456 11.8361 12.3271 12.6949 12.3271C13.5536 12.3271 14.3232 11.9456 14.8394 11.3461C15.3556 11.9456 16.1252 12.3271 16.9839 12.3271C17.8427 12.3271 18.6123 11.9456 19.1284 11.3461C19.5817 11.8725 20.2303 12.2304 20.9631 12.31V20.4704C20.9633 21.0786 20.4608 21.5733 19.8435 21.5733ZM21.2731 11.0125C20.4585 11.0125 19.796 10.3598 19.796 9.5577V8.10289H22.7503V9.5577C22.7503 10.3598 22.0876 11.0125 21.2731 11.0125Z" fill="black"/>
</g>
<defs>
<clipPath id="clip0_444_2613">
<rect width="24.5327" height="24.5327" fill="white" transform="translate(0.427734 0.107483)"/>
</clipPath>
</defs>
</svg>
