<svg width="25" height="26" viewBox="0 0 25 26" fill="none" xmlns="http://www.w3.org/2000/svg">
<path d="M12.6937 24.0909C6.63206 24.0909 1.70508 19.1639 1.70508 13.1023C1.70508 7.04069 6.63206 2.11371 12.6937 2.11371C18.7553 2.11371 23.6823 7.04069 23.6823 13.1023C23.6823 19.1639 18.7553 24.0909 12.6937 24.0909ZM12.6937 3.647C7.48049 3.647 3.23837 7.88912 3.23837 13.1023C3.23837 18.3155 7.48049 22.5576 12.6937 22.5576C17.9069 22.5576 22.149 18.3155 22.149 13.1023C22.149 7.88912 17.9069 3.647 12.6937 3.647Z" fill="#292D32"/>
<path d="M9.62714 23.0687H8.60494C8.18584 23.0687 7.83829 22.7211 7.83829 22.302C7.83829 21.8829 8.16539 21.5456 8.5845 21.5354C6.97965 16.0564 6.97965 10.1481 8.5845 4.66916C8.16539 4.65894 7.83829 4.32161 7.83829 3.90251C7.83829 3.48341 8.18584 3.13586 8.60494 3.13586H9.62714C9.87246 3.13586 10.1076 3.25853 10.2507 3.45275C10.3938 3.65718 10.4347 3.91273 10.3529 4.14784C8.43117 9.92325 8.43117 16.2813 10.3529 22.0669C10.4347 22.302 10.3938 22.5576 10.2507 22.762C10.1076 22.946 9.87246 23.0687 9.62714 23.0687Z" fill="#292D32"/>
<path d="M15.7612 23.0687C15.6795 23.0687 15.5977 23.0585 15.5159 23.0278C15.1173 22.8949 14.8924 22.4554 15.0355 22.0567C16.9572 16.2813 16.9572 9.92325 15.0355 4.13762C14.9026 3.73896 15.1173 3.29942 15.5159 3.16653C15.9248 3.03365 16.3541 3.24831 16.487 3.64696C18.5212 9.73925 18.5212 16.4449 16.487 22.5269C16.3848 22.8642 16.0781 23.0687 15.7612 23.0687Z" fill="#292D32"/>
<path d="M12.6949 18.4177C9.843 18.4177 7.0013 18.019 4.26181 17.2115C4.25159 17.6204 3.91426 17.9577 3.49516 17.9577C3.07606 17.9577 2.72852 17.6102 2.72852 17.1911V16.1689C2.72852 15.9235 2.85118 15.6884 3.0454 15.5453C3.24984 15.4022 3.50538 15.3613 3.74049 15.4431C9.5159 17.3648 15.8842 17.3648 21.6596 15.4431C21.8947 15.3613 22.1502 15.4022 22.3547 15.5453C22.5591 15.6884 22.6716 15.9235 22.6716 16.1689V17.1911C22.6716 17.6102 22.324 17.9577 21.9049 17.9577C21.4858 17.9577 21.1485 17.6306 21.1383 17.2115C18.3886 18.019 15.5469 18.4177 12.6949 18.4177Z" fill="#292D32"/>
<path d="M21.8946 10.8023C21.8128 10.8023 21.731 10.7921 21.6492 10.7614C15.8738 8.83972 9.50554 8.83972 3.73013 10.7614C3.32125 10.8943 2.89193 10.6797 2.75905 10.281C2.63638 9.87214 2.85104 9.44282 3.2497 9.30993C9.34199 7.27576 16.0476 7.27576 22.1297 9.30993C22.5283 9.44282 22.7532 9.88236 22.6101 10.281C22.5181 10.5979 22.2114 10.8023 21.8946 10.8023Z" fill="#292D32"/>
</svg>

