<svg width="23" height="25" viewBox="0 0 23 25" fill="none" xmlns="http://www.w3.org/2000/svg">
<path d="M20.5596 10.3839H20.4988V8.89613C20.4988 4.11708 16.6247 0.242889 11.8456 0.242889C7.06649 0.242889 3.19235 4.11708 3.19235 8.89613V10.3839H2.82803C1.49207 10.3839 0.459774 11.568 0.459774 12.9343V16.7296C0.426125 18.0539 1.47243 19.1547 2.7967 19.1883C2.80716 19.1886 2.81757 19.1888 2.82803 19.1889H5.07482C5.39306 19.174 5.63895 18.9038 5.62395 18.5856C5.62343 18.5741 5.62256 18.5627 5.62134 18.5513V11.1125C5.62134 10.7482 5.40881 10.3838 5.07482 10.3838H4.40685V8.89608C4.40685 4.78779 7.73731 1.45732 11.8456 1.45732C15.9539 1.45732 19.2843 4.78779 19.2843 8.89608V10.3838H18.6164C18.2824 10.3838 18.0699 10.7481 18.0699 11.1125V18.5513C18.036 18.8681 18.2653 19.1524 18.5821 19.1863C18.5935 19.1875 18.6049 19.1883 18.6164 19.1889H19.3147L19.254 19.2799C18.3429 20.4908 16.9132 21.1999 15.3979 21.1927C15.0662 19.5662 13.4786 18.5164 11.852 18.8482C10.4611 19.1319 9.45816 20.3501 9.44695 21.7696C9.46357 23.4347 10.8181 24.7756 12.4832 24.7755C13.3074 24.7621 14.0931 24.4239 14.6692 23.8343C15.058 23.4362 15.3127 22.9267 15.3979 22.3768C17.2955 22.384 19.0851 21.4949 20.2255 19.9782L20.8024 19.1281C22.108 19.037 22.9278 18.2172 22.9278 17.0331V13.2378C22.9278 11.9324 21.9563 10.3839 20.5596 10.3839ZM4.40685 17.9744H2.82803C2.17423 17.9585 1.65712 17.4157 1.67305 16.7619C1.67334 16.7511 1.67374 16.7404 1.67427 16.7295V12.9343C1.67427 12.236 2.16005 11.5983 2.82803 11.5983H4.40685V17.9744ZM13.7888 22.9842C13.4523 23.349 12.9795 23.558 12.4832 23.5611C11.4954 23.5454 10.6938 22.7571 10.6615 21.7697C10.6611 20.7804 11.4628 19.978 12.4521 19.9776C13.4415 19.9772 14.2438 20.7789 14.2442 21.7683C14.2442 21.7687 14.2442 21.7692 14.2442 21.7697C14.2695 22.2205 14.1042 22.6612 13.7888 22.9842ZM21.7133 17.0332C21.7133 17.853 20.9239 17.9744 20.5596 17.9744H19.2843V11.5984H20.5596C21.2275 11.5984 21.7133 12.5396 21.7133 13.2379V17.0332Z" fill="black"/>
</svg>
