<svg width="25" height="26" viewBox="0 0 25 26" fill="none" xmlns="http://www.w3.org/2000/svg">
<path d="M5.25997 23.4813H12.1187V16.0065H9.6545V13.5423H12.1187V10.462C12.1187 8.76349 13.5005 7.38169 15.199 7.38169H18.2793V9.84592H15.8151C15.1356 9.84592 14.5829 10.3986 14.5829 11.078V13.5423H18.1681L17.7574 16.0065H14.5829V23.4813H20.1274C21.8259 23.4813 23.2077 22.0995 23.2077 20.401V5.53353C23.2077 3.83504 21.8259 2.45325 20.1274 2.45325H5.25997C3.56148 2.45325 2.17969 3.83504 2.17969 5.53353V20.401C2.17969 22.0995 3.56148 23.4813 5.25997 23.4813ZM3.4118 5.53353C3.4118 4.51447 4.24091 3.68536 5.25997 3.68536H20.1274C21.1465 3.68536 21.9756 4.51447 21.9756 5.53353V20.401C21.9756 21.4201 21.1465 22.2492 20.1274 22.2492H15.8151V17.2386H18.8012L19.6226 12.3101H15.8151V11.078H19.5114V6.14958H15.199C12.8211 6.14958 10.8866 8.08406 10.8866 10.462V12.3101H8.42239V17.2386H10.8866V22.2492H5.25997C4.24091 22.2492 3.4118 21.4201 3.4118 20.401V5.53353Z" fill="black"/>
</svg>
