<svg width="25" height="26" viewBox="0 0 25 26" fill="none" xmlns="http://www.w3.org/2000/svg">
<path d="M20.1283 5.80378C18.1423 3.81796 15.5019 2.7243 12.6936 2.7243C9.88505 2.7243 7.24484 3.81796 5.25886 5.80378C3.50648 7.55617 2.42629 9.87921 2.21725 12.3449C2.01752 14.7021 2.61881 17.0646 3.91317 19.0254L3.60306 21.6448C3.58076 21.8321 3.64573 22.0194 3.77921 22.1528C3.91269 22.2863 4.09975 22.3515 4.28729 22.329L6.90665 22.0187C8.62102 23.1504 10.642 23.7523 12.6984 23.7523C12.994 23.7523 13.2908 23.7398 13.5872 23.7146C16.0528 23.5056 18.3759 22.4254 20.1283 20.673C22.1141 18.6872 23.2077 16.0468 23.2077 13.2383C23.2077 10.43 22.1141 7.78976 20.1283 5.80378ZM19.257 19.8019C16.0799 22.9789 11.0989 23.4296 7.41281 20.8739C7.30933 20.802 7.18676 20.764 7.06179 20.764C7.03772 20.764 7.0135 20.7654 6.98943 20.7683L4.91843 21.0135L5.16373 18.9426C5.18138 18.7933 5.14383 18.6426 5.05816 18.5191C2.50234 14.8332 2.95315 9.8521 6.13016 6.67492C9.74933 3.05608 15.6379 3.05608 19.257 6.67492C22.876 10.2941 22.876 16.1829 19.257 19.8019Z" fill="black"/>
<path d="M19.3304 16.2713L17.3751 14.3158C17.134 14.0747 16.8137 13.942 16.4728 13.942C16.1321 13.942 15.8116 14.0747 15.5705 14.3158L15.2579 14.6286C14.9218 14.9646 14.3761 14.9875 14.0358 14.6815L11.2513 11.8968C10.9454 11.5566 10.9684 11.0108 11.3043 10.6749L11.6171 10.362C11.8582 10.1211 11.9909 9.80063 11.9909 9.45971C11.9909 9.11895 11.8582 8.79847 11.6171 8.55757L9.66174 6.6021C9.16434 6.10468 8.35495 6.10451 7.85739 6.6021L6.87073 7.58897C6.10652 8.35305 5.68555 9.36916 5.68555 10.4501C5.68555 11.5308 6.10652 12.5469 6.87073 13.3112L12.6217 19.0624C13.3859 19.8267 14.402 20.2477 15.4827 20.2477C16.5635 20.2477 17.5794 19.8267 18.3436 19.0624L19.3304 18.0757C19.5715 17.8347 19.7042 17.5143 19.7042 17.1734C19.7041 16.8327 19.5713 16.5122 19.3304 16.2713ZM13.5238 18.1603L7.77283 12.4089C7.24951 11.8857 6.96144 11.1901 6.96144 10.4501C6.96144 9.71008 7.24951 9.01445 7.77283 8.49111L8.75948 7.50441L10.7149 9.45987L10.402 9.77272C9.57153 10.6031 9.53598 11.9201 10.3211 12.7705C10.3269 12.7767 10.3327 12.7828 10.3389 12.7888L13.1439 15.5941C13.15 15.6001 13.156 15.6061 13.1623 15.6117C14.0127 16.3969 15.3295 16.3615 16.16 15.531L16.473 15.2181L18.4283 17.1736L17.4415 18.1603C16.9182 18.6835 16.2226 18.9717 15.4827 18.9717C14.7429 18.9717 14.0471 18.6835 13.5238 18.1603Z" fill="black"/>
</svg>
