<svg width="25" height="26" viewBox="0 0 25 26" fill="none" xmlns="http://www.w3.org/2000/svg">
<path d="M17.4432 2.31775H7.9442C4.76564 2.31775 2.17969 4.90371 2.17969 8.08231V17.5813C2.17969 20.7599 4.76564 23.3458 7.9442 23.3458H17.4432C20.6218 23.3458 23.2077 20.7599 23.2077 17.5813V8.08231C23.2077 4.90371 20.6218 2.31775 17.4432 2.31775ZM21.9659 17.5813C21.9659 20.0751 19.9371 22.104 17.4432 22.104H7.9442C5.45037 22.104 3.42149 20.0751 3.42149 17.5813V8.08231C3.42149 5.58843 5.45037 3.55955 7.9442 3.55955H17.4432C19.9371 3.55955 21.9659 5.58843 21.9659 8.08231V17.5813Z" fill="black"/>
<path d="M12.6953 7.06427C9.51505 7.06427 6.92773 9.65158 6.92773 12.8318C6.92773 16.0121 9.515 18.5994 12.6953 18.5994C15.8755 18.5994 18.4629 16.012 18.4629 12.8318C18.4629 9.65154 15.8755 7.06427 12.6953 7.06427ZM12.6953 17.3576C10.1998 17.3576 8.1695 15.3273 8.1695 12.8318C8.1695 10.3363 10.1998 8.30599 12.6953 8.30599C15.1909 8.30599 17.2211 10.3363 17.2211 12.8318C17.2211 15.3273 15.1909 17.3576 12.6953 17.3576Z" fill="black"/>
<path d="M18.805 4.96722C17.8388 4.96722 17.0527 5.75335 17.0527 6.71957C17.0527 7.6858 17.8388 8.47188 18.805 8.47188C19.7713 8.47188 20.5574 7.68576 20.5574 6.71953C20.5574 5.75331 19.7713 4.96722 18.805 4.96722ZM18.805 7.23004C18.5236 7.23004 18.2945 7.00103 18.2945 6.71953C18.2945 6.43804 18.5236 6.20903 18.805 6.20903C19.0865 6.20903 19.3155 6.43808 19.3155 6.71953C19.3155 7.00099 19.0865 7.23004 18.805 7.23004Z" fill="black"/>
</svg>
