<svg width="58" height="58" viewBox="0 0 58 58" fill="none" xmlns="http://www.w3.org/2000/svg">
<path fill-rule="evenodd" clip-rule="evenodd" d="M46.6132 46.3113C44.2334 38.7853 37.8388 34.4731 29.0621 34.4731H28.9988C20.1986 34.4239 13.7713 38.7666 11.3867 46.3113L11.1104 47.1873L11.8927 47.6651C16.479 50.4619 22.199 51.879 28.8887 51.879C28.9637 51.879 29.0386 51.879 29.1113 51.879C35.8947 51.879 41.4554 50.4994 46.1073 47.6651L46.8896 47.1873L46.6132 46.3113Z" fill="white"/>
<path fill-rule="evenodd" clip-rule="evenodd" d="M29 29.2539C35.3782 29.2539 40.5689 24.0656 40.5689 17.6874C40.5689 11.3069 35.3782 6.11859 29 6.11859C22.6219 6.11859 17.4336 11.3069 17.4336 17.6874C17.4336 24.0656 22.6219 29.2539 29 29.2539Z" fill="white"/>
</svg>
