<svg width="9" height="14" viewBox="0 0 9 14" fill="none" xmlns="http://www.w3.org/2000/svg">
<path d="M0.987817 2.31104L0.987796 2.31106L0.989477 2.31268L4.96742 6.14755L4.96786 6.14796L5.83173 6.96986L0.98956 11.6263C0.884107 11.7277 0.796605 11.8422 0.741069 11.9703C0.687369 12.0943 0.654242 12.2305 0.654242 12.3689C0.654242 12.5102 0.67506 12.649 0.742324 12.7798C0.794909 12.9004 0.869926 13.025 0.969719 13.121L0.969633 13.1211L0.973227 13.1242C1.07667 13.2137 1.19441 13.2968 1.32618 13.3496C1.45896 13.4028 1.61004 13.4229 1.74675 13.4229C1.88913 13.4229 2.02892 13.3913 2.16505 13.341L2.16506 13.341L2.16732 13.3401C2.29908 13.2873 2.4178 13.2038 2.51386 13.1114L8.12862 7.7121C8.22755 7.61696 8.30349 7.50168 8.35727 7.37756L8.3573 7.37757L8.35826 7.37518C8.41085 7.24368 8.44409 7.10806 8.44409 6.96951C8.44409 6.83119 8.41097 6.69493 8.35727 6.571C8.30349 6.44687 8.22755 6.3316 8.12862 6.23645L2.51386 0.837114L2.51388 0.83709L2.51207 0.835444C2.30505 0.646838 2.0345 0.554257 1.75667 0.554257C1.47463 0.554257 1.20431 0.668754 1.0094 0.856192C0.804449 1.05328 0.694409 1.30479 0.693923 1.57789C0.683473 1.85233 0.793595 2.11389 0.987817 2.31104Z" fill="#181725" stroke="#181725" stroke-width="0.181159"/>
</svg>
