<svg width="19" height="18" viewBox="0 0 19 18" fill="none" xmlns="http://www.w3.org/2000/svg">
<path fill-rule="evenodd" clip-rule="evenodd" d="M12.6955 10.3936L10.5452 11.6312C10.1655 11.4997 9.07396 11.0595 8.07585 10.0614C7.13908 9.12459 6.74773 8.08998 6.6331 7.72856L7.87361 5.57392L5.17428 1.86481L4.88952 2.03274C3.73444 2.71031 2.88602 3.55727 2.22232 4.69921L2.17997 4.8153C1.80468 6.81808 2.95027 9.77077 5.03044 12.1627C7.2873 14.7576 10.2159 16.2194 13.1248 16.2194C13.2562 16.2194 13.3876 16.2172 13.5191 16.2106L13.6059 16.207L13.6811 16.1646C14.8508 15.5089 15.7007 14.6591 16.3556 13.4894L16.5126 13.2083L12.6955 10.3936Z" fill="black"/>
</svg>
