<svg width="22" height="22" viewBox="0 0 22 22" fill="none" xmlns="http://www.w3.org/2000/svg">
<path fill-rule="evenodd" clip-rule="evenodd" d="M15.9863 5.7167C16.023 5.7808 16.0872 5.82658 16.1697 5.82658C18.3697 5.82658 20.1663 7.62125 20.1663 9.81881V15.2578C20.1663 17.4553 18.3697 19.25 16.1697 19.25H5.82967C3.62051 19.25 1.83301 17.4553 1.83301 15.2578V9.81881C1.83301 7.62125 3.62051 5.82658 5.82967 5.82658C5.90301 5.82658 5.97634 5.78996 6.00384 5.7167L6.05884 5.60683C6.09043 5.54034 6.12285 5.47205 6.15576 5.40272C6.39028 4.90875 6.64974 4.36225 6.81051 4.04107C7.23217 3.21698 7.94717 2.75916 8.83634 2.75H13.1538C14.043 2.75916 14.7672 3.21698 15.1888 4.04107C15.3332 4.32947 15.5531 4.79403 15.7651 5.2418C15.8089 5.33423 15.8523 5.42595 15.8947 5.51526L15.9863 5.7167ZM15.3172 9.2328C15.3172 9.69062 15.6838 10.0569 16.1422 10.0569C16.6005 10.0569 16.9763 9.69062 16.9763 9.2328C16.9763 8.77497 16.6005 8.39956 16.1422 8.39956C15.6838 8.39956 15.3172 8.77497 15.3172 9.2328ZM9.41384 10.6521C9.84467 10.2217 10.4038 9.99279 10.9997 9.99279C11.5955 9.99279 12.1547 10.2217 12.5763 10.6429C12.998 11.0641 13.2272 11.6226 13.2272 12.2178C13.218 13.4448 12.228 14.4428 10.9997 14.4428C10.4038 14.4428 9.84467 14.2139 9.42301 13.7927C9.00134 13.3715 8.77217 12.813 8.77217 12.2178V12.2087C8.76301 11.6318 8.99217 11.0733 9.41384 10.6521ZM13.5388 14.7633C12.888 15.4134 11.9897 15.8163 10.9997 15.8163C10.0372 15.8163 9.13884 15.4409 8.45134 14.7633C7.77301 14.0766 7.39717 13.1792 7.39717 12.2178C7.38801 11.2655 7.76384 10.3682 8.44217 9.68147C9.12967 8.99473 10.0372 8.61931 10.9997 8.61931C11.9622 8.61931 12.8697 8.99473 13.548 9.67231C14.2263 10.359 14.6022 11.2655 14.6022 12.2178C14.593 13.2159 14.1897 14.1132 13.5388 14.7633Z" fill="white"/>
</svg>
