<svg width="16" height="16" viewBox="0 0 16 16" fill="none" xmlns="http://www.w3.org/2000/svg">
<path fill-rule="evenodd" clip-rule="evenodd" d="M0.331055 7.76224C0.331055 12.0493 3.8062 15.5245 8.09328 15.5245C12.3804 15.5245 15.8555 12.0493 15.8555 7.76224C15.8555 3.47516 12.3804 1.52588e-05 8.09328 1.52588e-05C3.8062 1.52588e-05 0.331055 3.47516 0.331055 7.76224Z" fill="#C5C5C5"/>
<path d="M11.4435 10.3003L11.4435 10.3003L11.4426 10.2994L9.28258 8.21811L9.28234 8.21788L8.81389 7.77242L11.4426 5.24586C11.4999 5.19077 11.5475 5.12854 11.5777 5.05885C11.6069 4.9915 11.6249 4.91743 11.6249 4.84222C11.6249 4.76544 11.6136 4.68997 11.577 4.61883C11.5484 4.55331 11.5076 4.48558 11.4533 4.4334L11.4534 4.43335L11.4514 4.43163C11.3952 4.38301 11.3312 4.33783 11.2595 4.30913C11.1873 4.28021 11.1052 4.26931 11.0309 4.26931C10.9534 4.26931 10.8774 4.28648 10.8034 4.31383L10.8034 4.31381L10.8022 4.31431C10.7305 4.34301 10.666 4.38838 10.6138 4.43858L7.56492 7.36897C7.51111 7.42069 7.46982 7.48335 7.44058 7.55081L7.44056 7.5508L7.44003 7.55212C7.41144 7.62356 7.39336 7.69728 7.39336 7.77262C7.39336 7.84782 7.41138 7.92189 7.44058 7.98924C7.46982 8.0567 7.51111 8.11936 7.56492 8.17108L10.6138 11.1015L10.6137 11.1015L10.6147 11.1024C10.7273 11.2049 10.8744 11.2552 11.0255 11.2552C11.1788 11.2552 11.3258 11.193 11.4318 11.0911C11.5432 10.984 11.6031 10.8473 11.6034 10.6988C11.609 10.5496 11.5491 10.4075 11.4435 10.3003Z" fill="white" stroke="white" stroke-width="0.1"/>
<path d="M4.74202 5.2242L4.742 5.22421L4.74293 5.22511L6.90297 7.30642L6.90321 7.30664L7.37165 7.7521L4.74298 10.2787C4.68566 10.3337 4.63807 10.396 4.60786 10.4657C4.57866 10.533 4.56064 10.6071 4.56064 10.6823C4.56064 10.7591 4.57195 10.8346 4.60855 10.9057C4.63713 10.9712 4.67792 11.0389 4.7322 11.0911L4.73216 11.0912L4.73414 11.0929C4.79035 11.1415 4.85436 11.1867 4.92602 11.2154C4.99825 11.2443 5.08039 11.2552 5.15469 11.2552C5.23212 11.2552 5.30812 11.238 5.38211 11.2107L5.38211 11.2107L5.38336 11.2102C5.45502 11.1815 5.51957 11.1361 5.57179 11.0859L8.62062 8.15555C8.67443 8.10383 8.71573 8.04117 8.74497 7.97371L8.74499 7.97372L8.74552 7.9724C8.7741 7.90096 8.79219 7.82724 8.79219 7.75191C8.79219 7.6767 8.77417 7.60263 8.74497 7.53528C8.71573 7.46782 8.67443 7.40516 8.62062 7.35344L5.57179 4.42304L5.5718 4.42303L5.57081 4.42212C5.45822 4.31961 5.31111 4.2693 5.16008 4.2693C5.00672 4.2693 4.85974 4.33153 4.75375 4.4334C4.64231 4.54051 4.58245 4.67723 4.58219 4.82569C4.57651 4.97489 4.63641 5.11706 4.74202 5.2242Z" fill="white" stroke="white" stroke-width="0.1"/>
</svg>
