<svg width="25" height="25" viewBox="0 0 25 25" fill="none" xmlns="http://www.w3.org/2000/svg">
<g clip-path="url(#clip0_444_2682)">
<path d="M9.67188 16.3114H7.26019V18.7558H9.67188V16.3114Z" fill="#0EBBB6"/>
<path d="M5.38415 13.2876C6.07331 13.7054 6.86952 13.9324 7.69363 13.9324C8.51793 13.9324 9.31396 13.7054 10.0033 13.2876C10.6925 13.7054 11.4887 13.9324 12.3128 13.9324C13.1369 13.9324 13.9331 13.7054 14.6223 13.2876C15.3114 13.7054 16.1075 13.9324 16.9318 13.9324C17.7559 13.9324 18.5521 13.7054 19.2413 13.2876C19.9306 13.7054 20.7266 13.9324 21.5509 13.9324C21.9316 13.9324 22.3013 13.8843 22.6543 13.7943V21.3992C22.6543 22.8567 21.4686 24.0426 20.0111 24.0426H18.8052V17.55C18.8052 17.153 18.4834 16.8313 18.0864 16.8313H14.2373C13.8403 16.8313 13.5185 17.153 13.5185 17.55V24.0426H4.61413C3.15664 24.0426 1.97092 22.8567 1.97092 21.3992V13.7943C2.32411 13.8845 2.69395 13.9324 3.07466 13.9324C3.89895 13.9324 4.69517 13.7054 5.38415 13.2876ZM5.82025 19.4747C5.82025 19.8715 6.142 20.1934 6.53898 20.1934H10.3881C10.7851 20.1934 11.1069 19.8715 11.1069 19.4747V15.5928C11.1069 15.196 10.7851 14.874 10.3881 14.874H6.53898C6.142 14.874 5.82025 15.196 5.82025 15.5928V19.4747Z" fill="#0EBBB6"/>
<path d="M17.3691 18.2687H14.9573V24.0425H17.3691V18.2687Z" fill="#0EBBB6"/>
<path d="M19.9611 12.0416V7.87595H24.5801V9.4667C24.5801 11.1364 23.2216 12.4949 21.5519 12.4949C20.9685 12.4949 20.4236 12.3287 19.9611 12.0416Z" fill="#0EBBB6"/>
<path d="M1.08669 3.4215C1.46683 2.09129 2.84796 1.0495 4.23114 1.0495H20.3977C21.7809 1.0495 23.1621 2.09129 23.5422 3.4215L24.4043 6.43849H0.224775L1.08669 3.4215Z" fill="#0EBBB6"/>
<path d="M16.9327 12.4949C16.3495 12.4949 15.8044 12.3287 15.3419 12.0416V7.87595H18.5234V12.0416C18.0609 12.3287 17.5161 12.4949 16.9327 12.4949Z" fill="#0EBBB6"/>
<path d="M4.66602 7.87595V12.0416C4.20352 12.3285 3.65867 12.4949 3.07526 12.4949C1.40552 12.4949 0.0470409 11.1364 0.0470409 9.4667V7.87595H4.66602Z" fill="#0EBBB6"/>
<path d="M12.3135 12.4949C11.7301 12.4949 11.1853 12.3287 10.7228 12.0416V7.87595H13.9043V12.0416C13.4418 12.3287 12.8969 12.4949 12.3135 12.4949Z" fill="#0EBBB6"/>
<path d="M7.6944 12.4949C7.11099 12.4949 6.56614 12.3287 6.10365 12.0416V7.87595H9.28516V12.0416C8.82266 12.3287 8.27762 12.4949 7.6944 12.4949Z" fill="#0EBBB6"/>
</g>
<defs>
<clipPath id="clip0_444_2682">
<rect width="24.5327" height="24.5327" fill="white" transform="matrix(-1 0 0 1 24.5801 0.282715)"/>
</clipPath>
</defs>
</svg>
