<svg width="22" height="19" viewBox="0 0 22 19" fill="none" xmlns="http://www.w3.org/2000/svg">
<path d="M3.86732 8.42618L10.9544 15.5132L18.0414 8.42618C18.668 7.7996 19.02 6.94977 19.02 6.06364C19.02 5.17752 18.668 4.32769 18.0414 3.70111C17.7312 3.39086 17.3628 3.14475 16.9575 2.97684C16.5521 2.80894 16.1176 2.72252 15.6789 2.72252C14.7928 2.72252 13.9429 3.07453 13.3163 3.70111L10.9544 6.06309L8.59239 3.70222C7.96421 3.08405 7.11721 2.73914 6.23588 2.74262C5.35456 2.74611 4.51031 3.0977 3.88704 3.72083C3.26376 4.34395 2.91197 5.18812 2.90828 6.06944C2.90458 6.95077 3.2493 7.79785 3.86732 8.42618ZM10.167 2.12534L10.9544 2.91267L11.7417 2.12534C12.2579 1.60458 12.8719 1.19091 13.5484 0.908084C14.2249 0.625253 14.9507 0.478832 15.6839 0.477226C16.4172 0.47562 17.1435 0.618862 17.8213 0.898727C18.4991 1.17859 19.1149 1.58957 19.6334 2.10806C20.1518 2.62656 20.5628 3.24236 20.8427 3.92011C21.1226 4.59786 21.2658 5.32422 21.2642 6.05748C21.2626 6.79074 21.1162 7.51646 20.8333 8.19298C20.5505 8.8695 20.1368 9.4835 19.6161 9.99972L11.7428 17.8741C11.6394 17.9776 11.5166 18.0598 11.3814 18.1158C11.2462 18.1719 11.1013 18.2007 10.9549 18.2007C10.8086 18.2007 10.6637 18.1719 10.5285 18.1158C10.3933 18.0598 10.2705 17.9776 10.167 17.8741L2.29267 10.0008C1.76483 9.48627 1.34441 8.87203 1.05581 8.19372C0.767209 7.51542 0.616165 6.78656 0.611442 6.04943C0.606719 5.3123 0.748411 4.58156 1.0283 3.89962C1.30819 3.21767 1.7207 2.59809 2.2419 2.07681C2.76311 1.55553 3.38263 1.14293 4.06454 0.862948C4.74644 0.582964 5.47716 0.441169 6.21429 0.445788C6.95143 0.450407 7.6803 0.601347 8.35865 0.889854C9.03699 1.17836 9.6513 1.59869 10.1659 2.12646L10.167 2.12534Z" fill="#7C7C7C"/>
</svg>
