<svg width="19" height="19" viewBox="0 0 19 19" fill="none" xmlns="http://www.w3.org/2000/svg">
<path fill-rule="evenodd" clip-rule="evenodd" d="M9.31191 10.8204C8.21013 10.8204 7.31352 9.92456 7.31352 8.82278C7.31352 7.721 8.21013 6.82438 9.31191 6.82438C10.4137 6.82438 11.3096 7.721 11.3096 8.82278C11.3096 9.92456 10.4137 10.8204 9.31191 10.8204ZM13.4109 4.36381C12.2931 3.21092 10.8372 2.5757 9.31191 2.5757C7.78519 2.5757 6.32929 3.21092 5.21071 4.36454C4.07534 5.53569 3.4518 7.10914 3.50072 8.68186C3.63872 13.1386 8.88843 16.609 9.11258 16.7543L9.30899 16.8821L9.50759 16.7565C9.73101 16.6148 14.9844 13.2284 15.1231 8.68113C15.1713 7.10914 14.547 5.53496 13.4109 4.36381Z" fill="black"/>
</svg>
