<svg width="25" height="25" viewBox="0 0 25 25" fill="none" xmlns="http://www.w3.org/2000/svg">
<path d="M18.1816 8.5196L9.61879 4.23822C3.86694 1.35729 1.50618 3.71805 4.38711 9.46991L5.25739 11.2105C5.50747 11.7206 5.50747 12.3108 5.25739 12.821L4.38711 14.5515C1.50618 20.3034 3.85693 22.6642 9.61879 19.7832L18.1816 15.5019C22.0228 13.5812 22.0228 10.4402 18.1816 8.5196ZM14.9505 12.761H9.54877C9.13864 12.761 8.79853 12.4209 8.79853 12.0107C8.79853 11.6006 9.13864 11.2605 9.54877 11.2605H14.9505C15.3606 11.2605 15.7008 11.6006 15.7008 12.0107C15.7008 12.4209 15.3606 12.761 14.9505 12.761Z" fill="#1D272F"/>
</svg>
