<svg width="21" height="20" viewBox="0 0 21 20" fill="none" xmlns="http://www.w3.org/2000/svg">
<path fill-rule="evenodd" clip-rule="evenodd" d="M9.67183 3.38131C6.43886 3.38131 3.81801 6.00215 3.81801 9.23512C3.81801 12.4681 6.43886 15.0889 9.67183 15.0889C12.9048 15.0889 15.5256 12.4681 15.5256 9.23512C15.5256 6.00215 12.9048 3.38131 9.67183 3.38131ZM2.61328 9.23512C2.61328 5.33679 5.7735 2.17657 9.67183 2.17657C13.5702 2.17657 16.7304 5.33679 16.7304 9.23512C16.7304 13.1335 13.5702 16.2937 9.67183 16.2937C5.7735 16.2937 2.61328 13.1335 2.61328 9.23512Z" fill="#999999"/>
<path fill-rule="evenodd" clip-rule="evenodd" d="M14.0793 13.1376L18.5894 17.636L17.7386 18.489L13.2285 13.9906L14.0793 13.1376Z" fill="#999999"/>
</svg>
