<svg width="45" height="45" viewBox="0 0 45 45" fill="none" xmlns="http://www.w3.org/2000/svg">
<path fill-rule="evenodd" clip-rule="evenodd" d="M32.9181 20.6795L41.9635 20.6795V23.492H32.9185M32.9185 23.492C30.7616 23.4936 29.2444 25.0547 29.2441 26.7085C29.2456 28.3641 30.7625 29.9248 32.9188 29.926H41.9635V32.7385H32.9181C29.4648 32.7365 26.434 30.1611 26.4316 26.7099C26.4316 23.2572 29.4657 20.6814 32.9181 20.6795" fill="#169995"/>
<path fill-rule="evenodd" clip-rule="evenodd" d="M3.03613 9.33118H41.9636V41.2512H3.03613V9.33118ZM5.84863 12.1437V38.4387H39.1511V12.1437H5.84863Z" fill="#169995"/>
<path fill-rule="evenodd" clip-rule="evenodd" d="M3.03711 3.75058L37.0293 3.75209V11.9594H34.2169V6.56446L5.84961 6.5632V41.2498H3.03711V3.75058Z" fill="#169995"/>
<path fill-rule="evenodd" clip-rule="evenodd" d="M11.5938 17.895H24.5941V20.7075H11.5938V17.895Z" fill="#169995"/>
</svg>
