<svg width="254" height="193" viewBox="0 0 254 193" fill="none" xmlns="http://www.w3.org/2000/svg">
<path d="M251.677 177.362L194.747 102.684C191.345 98.222 186.061 95.6059 180.452 95.6059H73.1907C67.581 95.6059 62.297 98.222 58.895 102.684L1.97104 177.362C-2.81658 183.644 1.66083 192.692 9.5609 192.692H244.087C251.987 192.687 256.464 183.639 251.677 177.362Z" fill="url(#paint0_linear_444_4159)"/>
<path d="M5.17639 177.517C3.67186 177.517 2.27591 177.962 1.10227 178.722C-2.1653 184.87 2.21903 192.687 9.56073 192.687H244.087C251.428 192.687 255.813 184.87 252.545 178.722C251.371 177.962 249.975 177.517 248.471 177.517H5.17639Z" fill="#C9CDD3"/>
<path d="M102.387 134.01L143.118 177.517H126.47L90.4229 139.248L102.387 134.01Z" fill="white"/>
<path d="M187.116 96.8984C185.022 96.0609 182.768 95.6111 180.457 95.6111H159.766L16.4322 158.393L1.97113 177.362C1.74881 177.657 1.55234 177.957 1.36621 178.257L187.116 96.8984Z" fill="#FEE379"/>
<path d="M1.37109 178.257L90.4228 139.248L126.469 177.517L1.37109 178.257Z" fill="#86ADFF"/>
<path d="M16.4316 158.393L159.765 95.6111H73.1902C67.5805 95.6111 62.2966 98.2272 58.8946 102.689L16.4316 158.393Z" fill="#69CA9F"/>
<path d="M215.072 129.347L210.672 123.577L183.869 135.292L159.321 109.069L147.518 114.239L172.055 140.452L126.821 160.223L132.002 165.647L177.164 145.912L206.753 177.517H223.396L188.978 140.747L215.072 129.347Z" fill="#C9CDD3"/>
<path opacity="0.3" d="M197.234 105.946L194.747 102.684C191.345 98.222 186.062 95.6059 180.452 95.6059H126.821V136.616L197.234 105.946Z" fill="url(#paint1_linear_444_4159)"/>
<path d="M120.695 0.412025C100.211 3.15224 84.5501 19.5677 82.6423 40.1451C81.3291 54.3011 86.6751 67.237 95.909 76.2021C99.4661 79.6558 102.77 83.3422 105.8 87.2302C114.398 98.2582 120.287 111.153 123.332 124.797L125.783 135.778C125.891 136.27 126.325 136.616 126.827 136.616C127.328 136.616 127.763 136.27 127.871 135.778L130.472 124.104C133.429 110.837 139.101 98.2892 147.404 87.53C150.367 83.6937 153.614 80.0798 157.166 76.7553C165.805 68.6639 171.208 57.1551 171.208 44.3795C171.203 17.8511 147.937 -3.23814 120.695 0.412025Z" fill="url(#paint2_linear_444_4159)"/>
<path d="M136.55 57.5996C141.923 52.2268 141.923 43.5159 136.55 38.1431C131.177 32.7704 122.466 32.7704 117.093 38.1431C111.721 43.5159 111.721 52.2268 117.093 57.5996C122.466 62.9723 131.177 62.9723 136.55 57.5996Z" fill="white"/>
<defs>
<linearGradient id="paint0_linear_444_4159" x1="19.7929" y1="80.3715" x2="202.925" y2="232.595" gradientUnits="userSpaceOnUse">
<stop stop-color="#F6F8FF"/>
<stop offset="1" stop-color="#DEE0ED"/>
</linearGradient>
<linearGradient id="paint1_linear_444_4159" x1="210.813" y1="71.0112" x2="118.348" y2="127.431" gradientUnits="userSpaceOnUse">
<stop/>
<stop offset="1"/>
</linearGradient>
<linearGradient id="paint2_linear_444_4159" x1="139.517" y1="92.3192" x2="107.066" y2="-16.9031" gradientUnits="userSpaceOnUse">
<stop stop-color="#5565EE"/>
<stop offset="0.3091" stop-color="#5F75FF"/>
<stop offset="0.5137" stop-color="#6E89FA"/>
<stop offset="0.7638" stop-color="#6E89FA"/>
<stop offset="1" stop-color="#7D99FD"/>
</linearGradient>
</defs>
</svg>
