<svg width="41" height="41" viewBox="0 0 41 41" fill="none" xmlns="http://www.w3.org/2000/svg">
<path fill-rule="evenodd" clip-rule="evenodd" d="M16.2464 25.759L14.4646 24.0226L23.7614 14.9642L25.5414 16.7006L16.2464 25.759ZM24.9218 25.1485H22.4028L22.3894 22.6937H24.9218V25.1485ZM17.6117 15.5697V18.0245H15.0927L15.0826 15.5697H17.6117ZM36.2203 19.8788C33.0766 17.5548 31.4594 13.7465 31.9951 9.93824L32.1462 8.86955L31.0479 9.01685C27.1519 9.54055 23.2324 7.96126 20.8477 4.89759L20.1794 4.03839L19.5093 4.89759C17.1247 7.96126 13.2068 9.54218 9.30911 9.01685L8.21252 8.86955L8.36366 9.93824C8.89936 13.7465 7.28049 17.5548 4.13848 19.8788L3.25684 20.5301L4.13848 21.1831C7.28049 23.5054 8.89936 27.3137 8.36366 31.1237L8.21252 32.1923L9.30911 32.0451C13.2051 31.5246 17.1247 33.099 19.5093 36.1627L20.1794 37.0219L20.8477 36.1627C23.2324 33.099 27.1536 31.5263 31.0479 32.0451L32.1462 32.1923L31.9951 31.1237C31.4594 27.3137 33.0766 23.5054 36.2203 21.1831L37.1019 20.5301L36.2203 19.8788Z" fill="#0EBBB6"/>
</svg>
