<svg width="20" height="20" viewBox="0 0 20 20" fill="none" xmlns="http://www.w3.org/2000/svg">
<path d="M10.0003 13.3333C11.8413 13.3333 13.3336 11.8409 13.3336 10C13.3336 8.15907 11.8413 6.66669 10.0003 6.66669C8.15937 6.66669 6.66699 8.15907 6.66699 10C6.66699 11.8409 8.15937 13.3333 10.0003 13.3333Z" fill="black"/>
<path d="M19.5833 9.16668H17.4508C17.0651 5.69648 14.3039 2.93492 10.8333 2.54914V0.41668C10.8333 0.186367 10.647 0 10.4167 0H9.58336C9.35305 0 9.16668 0.186367 9.16668 0.41668V2.54914C5.69609 2.93492 2.93492 5.69645 2.54918 9.16668H0.41668C0.186367 9.16668 0 9.35305 0 9.58332V10.4166C0 10.647 0.186367 10.8333 0.41668 10.8333H2.54918C2.93492 14.3035 5.69609 17.0651 9.16668 17.4509V19.5833C9.16668 19.8136 9.35305 20 9.58336 20H10.4167C10.647 20 10.8334 19.8136 10.8334 19.5833V17.4509C14.3039 17.0651 17.0651 14.3035 17.4509 10.8333H19.5834C19.8137 10.8333 20 10.647 20 10.4166V9.58332C20 9.35305 19.8136 9.16668 19.5833 9.16668ZM10 15.8333C6.78387 15.8333 4.16668 13.2165 4.16668 10C4.16668 6.78348 6.78387 4.16668 10 4.16668C13.2161 4.16668 15.8333 6.78344 15.8333 10C15.8333 13.2166 13.2161 15.8333 10 15.8333Z" fill="black"/>
</svg>
