<svg width="22" height="22" viewBox="0 0 22 22" fill="none" xmlns="http://www.w3.org/2000/svg">
<path d="M11.3812 2.27545C11.266 2.27658 11.1521 2.30051 11.0461 2.34589C10.9401 2.39127 10.8441 2.45722 10.7635 2.53992C10.6829 2.62263 10.6193 2.72053 10.5764 2.82794C10.5335 2.93535 10.5121 3.05016 10.5135 3.16588V10.2086C10.5135 10.4422 10.606 10.6662 10.7705 10.8314C10.9349 10.9966 11.158 11.0893 11.3906 11.0893C11.6232 11.0893 11.8462 10.9966 12.0107 10.8314C12.1752 10.6662 12.2676 10.4422 12.2677 10.2086V3.16588C12.2691 3.04857 12.2471 2.93215 12.203 2.82349C12.1589 2.71484 12.0937 2.61611 12.0111 2.53315C11.9285 2.45019 11.8302 2.38469 11.722 2.34043C11.6139 2.29617 11.498 2.27408 11.3812 2.27545ZM16.4932 4.04085C16.4647 4.04002 16.4361 4.0406 16.4077 4.04257C16.2344 4.05734 16.0695 4.12356 15.9338 4.23276C15.7981 4.34196 15.6978 4.48919 15.6457 4.6558C15.5936 4.8224 15.592 5.00085 15.6411 5.16837C15.6903 5.33588 15.7879 5.48493 15.9216 5.59655C17.4395 6.89122 18.3998 8.81819 18.3998 10.9821C18.3998 14.8893 15.2761 18.0385 11.3949 18.0385C7.51359 18.0385 4.38312 14.8893 4.38312 10.9821C4.38313 8.83071 5.3312 6.91682 6.83389 5.62232C6.92144 5.54727 6.99341 5.45559 7.0457 5.3526C7.09798 5.2496 7.12955 5.13728 7.13862 5.02203C7.14768 4.90678 7.13405 4.79092 7.09851 4.68096C7.06297 4.571 7.00622 4.46915 6.93149 4.38122C6.85675 4.29329 6.76551 4.221 6.66297 4.16849C6.56042 4.11598 6.44859 4.08421 6.33384 4.07511C6.2191 4.06601 6.10369 4.07973 5.99421 4.11543C5.88474 4.15113 5.78333 4.20813 5.69579 4.28319C3.81996 5.89914 2.62891 8.30779 2.62891 10.9821C2.6289 15.839 6.5649 19.7988 11.3949 19.7988C16.2248 19.7988 20.1523 15.839 20.1523 10.9821C20.1523 8.29219 18.9494 5.87363 17.0546 4.25742C16.8987 4.12099 16.6999 4.04428 16.4932 4.04085Z" fill="#F50E1C"/>
</svg>
