<svg width="17" height="18" viewBox="0 0 17 18" fill="none" xmlns="http://www.w3.org/2000/svg">
<path d="M9.65605 4.37285L9.424 4.14027V4.46882V11.2102C9.424 11.491 9.31248 11.7604 9.11398 11.959C8.91549 12.1576 8.6463 12.2691 8.36562 12.2691C8.08494 12.2691 7.81574 12.1576 7.61725 11.959C7.41876 11.7604 7.30724 11.491 7.30724 11.2102V4.46882V4.14048L7.07523 4.37281L5.73655 5.71335C5.73653 5.71337 5.73651 5.7134 5.73648 5.71342C5.73648 5.71342 5.73647 5.71343 5.73647 5.71343C5.53771 5.91211 5.26824 6.02365 4.98731 6.02355C4.70634 6.02345 4.43691 5.91169 4.23828 5.71282C4.03966 5.51396 3.92811 5.24428 3.92821 4.96311C3.92831 4.68194 4.04004 4.41234 4.23881 4.21362L7.61735 0.835779L7.61766 0.835469C7.71568 0.736829 7.83223 0.658554 7.96059 0.605143C8.08896 0.551732 8.2266 0.524236 8.36562 0.524236C8.50464 0.524236 8.64228 0.551732 8.77065 0.605143C8.89901 0.658554 9.01555 0.736829 9.11358 0.83547L9.11387 0.835761L12.4924 4.21474C12.4924 4.21476 12.4924 4.21478 12.4924 4.21479C12.5907 4.31325 12.6687 4.43012 12.7219 4.55874C12.7751 4.68737 12.8025 4.82524 12.8024 4.96446C12.8024 5.10368 12.7749 5.24152 12.7216 5.37012C12.6683 5.49872 12.5903 5.61555 12.4918 5.71395C12.3934 5.81235 12.2766 5.89039 12.148 5.94361C12.0195 5.99683 11.8817 6.0242 11.7426 6.02415C11.6035 6.0241 11.4657 5.99663 11.3372 5.94332C11.2087 5.89001 11.0919 5.81189 10.9936 5.71342L9.65605 4.37285ZM2.39436 9.81252H2.25849V9.94839V14.7278V14.8637H2.39436H14.3369H14.4727V14.7278V9.94839V9.81252H14.3369H13.1426C12.8619 9.81252 12.5928 9.70097 12.3943 9.50238C12.1958 9.30379 12.0842 9.03443 12.0842 8.75355C12.0842 8.47266 12.1958 8.2033 12.3943 8.00471C12.5928 7.80612 12.8619 7.69457 13.1426 7.69457H14.3369C14.9343 7.69457 15.5072 7.93201 15.9297 8.35467C16.3522 8.77734 16.5895 9.35062 16.5895 9.94839V14.7278C16.5895 15.3256 16.3522 15.8988 15.9297 16.3215C15.5072 16.7442 14.9343 16.9816 14.3369 16.9816H2.39436C1.79695 16.9816 1.22399 16.7442 0.801534 16.3215C0.379076 15.8988 0.141729 15.3256 0.141729 14.7278V9.94839C0.141729 9.35062 0.379076 8.77734 0.801534 8.35467C1.22399 7.93201 1.79695 7.69457 2.39436 7.69457H3.58861C3.86929 7.69457 4.13849 7.80612 4.33698 8.00471C4.53547 8.2033 4.647 8.47266 4.647 8.75355C4.647 9.03443 4.53547 9.30379 4.33698 9.50238C4.13849 9.70097 3.86929 9.81252 3.58861 9.81252H2.39436Z" fill="#181725" stroke="white" stroke-width="0.271739"/>
</svg>
