<svg width="22" height="22" viewBox="0 0 22 22" fill="none" xmlns="http://www.w3.org/2000/svg">
<path d="M15.7712 12.1764C14.4673 12.1764 13.3128 12.8153 12.5945 13.7935L9.02714 12.0149C9.13885 11.6501 9.19997 11.2632 9.19997 10.8622C9.19997 10.4612 9.13885 10.0743 9.02714 9.70942L12.5945 7.93091C13.3128 8.90904 14.4673 9.54793 15.7712 9.54793C17.9453 9.54793 19.714 7.77927 19.714 5.60517C19.714 3.43107 17.9453 1.66241 15.7712 1.66241C13.5971 1.66241 11.8285 3.43107 11.8285 5.60517C11.8285 6.00618 11.8896 6.39307 12.0013 6.75793L8.43392 8.53645C7.71568 7.55831 6.56111 6.91942 5.25721 6.91942C3.08311 6.91942 1.31445 8.68808 1.31445 10.8622C1.31445 13.0363 3.08311 14.8049 5.25721 14.8049C6.56111 14.8049 7.71568 14.166 8.43392 13.1879L12.0013 14.9664C11.8896 15.3313 11.8285 15.7182 11.8285 16.1192C11.8285 18.2933 13.5971 20.0619 15.7712 20.0619C17.9453 20.0619 19.714 18.2933 19.714 16.1192C19.714 13.9451 17.9453 12.1764 15.7712 12.1764ZM15.7712 2.97667C17.2205 2.97667 18.3997 4.15588 18.3997 5.60517C18.3997 7.05446 17.2205 8.23368 15.7712 8.23368C14.3219 8.23368 13.1427 7.05446 13.1427 5.60517C13.1427 4.15588 14.3219 2.97667 15.7712 2.97667ZM5.25721 13.4907C3.80792 13.4907 2.62871 12.3115 2.62871 10.8622C2.62871 9.41289 3.80792 8.23368 5.25721 8.23368C6.7065 8.23368 7.88571 9.41289 7.88571 10.8622C7.88571 12.3115 6.7065 13.4907 5.25721 13.4907ZM15.7712 18.7477C14.3219 18.7477 13.1427 17.5685 13.1427 16.1192C13.1427 14.6699 14.3219 13.4907 15.7712 13.4907C17.2205 13.4907 18.3997 14.6699 18.3997 16.1192C18.3997 17.5685 17.2205 18.7477 15.7712 18.7477Z" fill="black"/>
</svg>
