<svg width="22" height="22" viewBox="0 0 22 22" fill="none" xmlns="http://www.w3.org/2000/svg">
<path fill-rule="evenodd" clip-rule="evenodd" d="M15.7861 5.70899C12.8891 2.81169 8.18161 2.81169 5.28461 5.70975C3.83086 7.16318 3.10693 9.06332 3.10834 10.9659C3.10943 12.4372 3.09886 14.4544 3.08803 16.1025C3.08262 16.9268 3.07713 17.6593 3.073 18.1857L3.07156 18.3648C3.12536 18.3644 3.18195 18.364 3.24119 18.3637C3.7617 18.3604 4.48583 18.3567 5.30037 18.3549C6.92764 18.3514 8.92214 18.3556 10.3742 18.387C12.3284 18.4292 14.2926 17.7063 15.7861 16.2127C18.6834 13.315 18.6885 8.61174 15.7861 5.70899ZM2.40899 19.0269L1.75189 19.0211L1.75879 18.1753C1.76292 17.6494 1.7684 16.9175 1.77381 16.0938C1.78464 14.446 1.79518 12.433 1.79409 10.9669C1.79243 8.72955 2.64481 6.49059 4.35513 4.7806C4.35517 4.78055 4.35508 4.78065 4.35513 4.7806M4.35513 4.7806C7.7654 1.36922 13.3052 1.36913 16.7154 4.77973C20.1316 8.19631 20.1254 13.7317 16.7154 17.1419C14.9583 18.8993 12.6436 19.7506 10.3458 19.7009C8.91064 19.6699 6.92965 19.6656 5.30322 19.6692C4.49091 19.6709 3.76864 19.6746 3.24946 19.6779C2.98989 19.6795 2.78113 19.6811 2.63731 19.6822L2.41575 19.684L2.40899 19.0269L2.41487 19.684L1.74609 19.69L1.75189 19.0211L2.40899 19.0269" fill="black"/>
<path fill-rule="evenodd" clip-rule="evenodd" d="M6.54102 10.639H7.94178V11.9533H6.54102V10.639Z" fill="black"/>
<path fill-rule="evenodd" clip-rule="evenodd" d="M9.81348 10.6391H11.2142V11.9534H9.81348V10.6391Z" fill="black"/>
<path fill-rule="evenodd" clip-rule="evenodd" d="M13.085 10.639H14.4857V11.9533H13.085V10.639Z" fill="black"/>
</svg>
