<svg width="22" height="22" viewBox="0 0 22 22" fill="none" xmlns="http://www.w3.org/2000/svg">
<path fill-rule="evenodd" clip-rule="evenodd" d="M4.4345 8.02946C4.4345 4.67231 7.15601 1.95081 10.5132 1.95081C13.8703 1.95081 16.5918 4.67231 16.5918 8.02946V11.9246L18.2929 16.5015H2.7334L4.4345 11.9246V8.02946ZM10.5132 3.26506C7.88185 3.26506 5.74875 5.39816 5.74875 8.02946V12.161L4.62397 15.1873H16.4023L15.2776 12.161V8.02946C15.2776 5.39815 13.1445 3.26506 10.5132 3.26506Z" fill="black"/>
<path fill-rule="evenodd" clip-rule="evenodd" d="M7.08301 16.0426V15.8446H8.39726V16.0426C8.39726 17.212 9.34526 18.16 10.5147 18.16C11.6841 18.16 12.6321 17.212 12.6321 16.0426V15.8446H13.9463V16.0426C13.9463 17.9379 12.4099 19.4743 10.5147 19.4743C8.61941 19.4743 7.08301 17.9379 7.08301 16.0426Z" fill="black"/>
</svg>
