<svg width="22" height="23" viewBox="0 0 22 23" fill="none" xmlns="http://www.w3.org/2000/svg">
<path fill-rule="evenodd" clip-rule="evenodd" d="M10.9524 8.69384C9.47169 8.69384 8.27136 9.89418 8.27136 11.3749C8.27136 12.8556 9.47169 14.0559 10.9524 14.0559C12.4331 14.0559 13.6334 12.8556 13.6334 11.3749C13.6334 9.89418 12.4331 8.69384 10.9524 8.69384ZM6.90234 11.3749C6.90234 9.13809 8.71561 7.32483 10.9524 7.32483C13.1892 7.32483 15.0024 9.13809 15.0024 11.3749C15.0024 13.6116 13.1892 15.4249 10.9524 15.4249C8.71561 15.4249 6.90234 13.6116 6.90234 11.3749Z" fill="black"/>
<path fill-rule="evenodd" clip-rule="evenodd" d="M8.80877 2.10822L10.9534 3.79563L13.098 2.10822L17.9071 4.88473L17.518 7.58559L20.0501 8.59853V14.1516L17.5171 15.1649L17.9061 17.8652L13.097 20.6417L10.9534 18.9551L8.80976 20.6417L4.0007 17.8652L4.38958 15.1653L1.85547 14.1516V8.59853L4.38866 7.58513L3.99971 4.88473L8.80877 2.10822ZM5.48687 5.60691L5.89726 8.45611L3.22448 9.52535V13.2247L5.89817 14.2943L5.48786 17.143L8.69161 18.9927L10.9534 17.2131L13.2152 18.9927L16.4189 17.143L16.0085 14.2939L18.6811 13.2247V9.52535L16.0095 8.45658L16.4199 5.60691L13.2161 3.75723L10.9534 5.5376L8.69063 3.75723L5.48687 5.60691Z" fill="black"/>
</svg>
